<svg viewBox="0 0 800 500" xmlns="http://www.w3.org/2000/svg" preserveAspectRatio="xMidYMid slice" aria-label="Snow Beach — a sunny shoreline scattered with shells and driftwood after a storm, with Pip the penguin waddling toward a cosy driftwood shelter" role="img">

  <!-- ════════════════════════════════════════════════════════════
       SNOW BEACH — mission scene background
       Sausage the Seal: Arctic Math Adventure
       Same conventions as the Fish Bay scene (flat vector, no
       gradients, navy #1d3a4a outlines, viewBox 0 0 800 500) so the
       islands read as one consistent world. Pip's colours are pulled
       directly from the existing ANIMAL_SVGS[1] icon in game.js so
       she matches her own rescue-card/town art exactly.

       FRIEND: #islandFriendSpot is Pip's permanent position for the
       whole mission — she stays put near the driftwood where she
       washed up. Sausage (a separate top-level element,
       #missionSealRig in index.html) is what now waddles/swims in
       toward her as questions are answered; see syncMissionSeal() in
       game.js. Matches the rescue dialogue better than the earlier
       version where she walked toward a stationary Sausage.
       ════════════════════════════════════════════════════════════ -->

  <defs>
    <clipPath id="sb-canvas"><rect x="0" y="0" width="800" height="500"/></clipPath>
  </defs>

  <style>
    .scn-cloud-a { animation: scn-drift-a 15s ease-in-out infinite; }
    .scn-cloud-b { animation: scn-drift-b 12s ease-in-out infinite; }
    .scn-cloud-c { animation: scn-drift-c 10s ease-in-out infinite; }
    .scn-cloud-d { animation: scn-drift-d 8s  ease-in-out infinite; }
    @keyframes scn-drift-a { 0%,100% { transform: translateX(0); } 50% { transform: translateX(18px); } }
    @keyframes scn-drift-b { 0%,100% { transform: translateX(0); } 50% { transform: translateX(-14px); } }
    @keyframes scn-drift-c { 0%,100% { transform: translateX(0); } 50% { transform: translateX(12px); } }
    @keyframes scn-drift-d { 0%,100% { transform: translateX(0); } 50% { transform: translateX(-9px); } }

    /* Lantern at the shelter — warm flicker + soft glow pulse */
    .scn-lantern      { transform-origin: 480px 408px; animation: scn-flicker 2.1s ease-in-out infinite; }
    .scn-lantern-glow { transform-origin: 480px 408px; animation: scn-glow 2.1s ease-in-out infinite; }
    @keyframes scn-flicker { 0%,100% { opacity: .8; } 30% { opacity: 1; } 45% { opacity: .65; } 70% { opacity: 1; } 85% { opacity: .75; } }
    @keyframes scn-glow    { 0%,100% { opacity: .25; transform: scale(1); } 50% { opacity: .55; transform: scale(1.4); } }

    /* A little barrel bobbing in the shallows, just past the shoreline */
    .scn-barrel { transform-origin: 560px 258px; animation: scn-rock 3.4s ease-in-out infinite; }
    @keyframes scn-rock { 0%,100% { transform: rotate(-3deg) translateY(0); } 50% { transform: rotate(3deg) translateY(-2px); } }

    /* A small fish leaping in the shallows, with a synced splash */
    .scn-fish   { transform-origin: 200px 236px; animation: scn-jump 3.2s ease-in-out infinite; }
    .scn-splash { transform-origin: 182px 256px; animation: scn-splash 3.2s ease-in-out infinite; }
    @keyframes scn-jump {
      0%   { transform: translate(0,10px)  rotate(-4deg);  opacity: .9; }
      16%  { transform: translate(-5px,-16px) rotate(-22deg); opacity: 1; }
      30%  { transform: translate(-8px,-24px) rotate(-14deg); opacity: 1; }
      46%  { transform: translate(-3px,-5px)  rotate(-4deg);  opacity: 1; }
      58%  { transform: translate(0,10px)  rotate(-2deg);  opacity: .9; }
      64%  { opacity: 0; }
      96%  { opacity: 0; transform: translate(0,10px) rotate(-2deg); }
      100% { transform: translate(0,10px)  rotate(-4deg);  opacity: .9; }
    }
    @keyframes scn-splash {
      0%, 52% { transform: scale(.4); opacity: 0; }
      60%     { transform: scale(1);  opacity: .6; }
      72%     { transform: scale(1.5); opacity: 0; }
      100%    { transform: scale(.4); opacity: 0; }
    }

    /* Pip — idle waddle + a friendly flipper wave */
    .scn-pip      { transform-origin: 60px 466px; animation: scn-waddle 2.6s ease-in-out infinite; }
    .scn-pip-wave { transform-origin: 84px 432px; animation: scn-wave 1.7s ease-in-out infinite; }
    @keyframes scn-waddle { 0%,100% { transform: rotate(-3deg); } 50% { transform: rotate(3deg); } }
    @keyframes scn-wave   { 0%,100% { transform: rotate(-8deg); } 50% { transform: rotate(30deg); } }
  </style>

  <g clip-path="url(#sb-canvas)">

    <!-- ── Sky ─────────────────────────────────────────────── -->
    <rect x="0" y="0" width="800" height="200" fill="#fff7cf"/>
    <rect x="0" y="150" width="800" height="50" fill="#ffe9a8"/>

    <!-- ── Sun, warm and calm (this island already passed its storm) ── -->
    <circle cx="120" cy="90" r="52" fill="#ffe9a8" opacity=".6"/>
    <g stroke="#ffd45a" stroke-width="4" stroke-linecap="round" opacity=".55">
      <line x1="166" y1="90" x2="180" y2="90"/>
      <line x1="143" y1="50" x2="150" y2="38"/>
      <line x1="97" y1="50" x2="90" y2="38"/>
      <line x1="74" y1="90" x2="60" y2="90"/>
      <line x1="97" y1="130" x2="90" y2="142"/>
      <line x1="143" y1="130" x2="150" y2="142"/>
    </g>
    <circle cx="120" cy="90" r="40" fill="#ffd45a"/>

    <!-- ── Clouds, light and few — sunny after the storm ───── -->
    <g fill="#ffffff" stroke="#ffe9c0" stroke-width="2">
      <g class="scn-cloud-a">
        <ellipse cx="400" cy="52" rx="32" ry="14"/>
        <circle cx="384" cy="46" r="13"/><circle cx="404" cy="40" r="16"/><circle cx="422" cy="48" r="11"/>
      </g>
      <g class="scn-cloud-b">
        <ellipse cx="600" cy="74" rx="26" ry="11"/>
        <circle cx="588" cy="70" r="10"/><circle cx="606" cy="65" r="13"/>
      </g>
      <g class="scn-cloud-c">
        <ellipse cx="684" cy="42" rx="18" ry="8"/>
        <circle cx="676" cy="39" r="8"/><circle cx="692" cy="37" r="9"/>
      </g>
      <g class="scn-cloud-d">
        <ellipse cx="500" cy="112" rx="14" ry="6"/>
        <circle cx="494" cy="110" r="6"/><circle cx="506" cy="108" r="7"/>
      </g>
    </g>

    <!-- ── Distant snow dunes along the horizon ────────────── -->
    <g fill="#ffffff" stroke="#eef0e8" stroke-width="2">
      <ellipse cx="90" cy="200" rx="68" ry="20"/>
      <ellipse cx="150" cy="202" rx="46" ry="16"/>
    </g>
    <g fill="#f4f6ee" stroke="#e6e9dd" stroke-width="2" opacity=".85">
      <ellipse cx="690" cy="200" rx="60" ry="18"/>
      <ellipse cx="745" cy="202" rx="38" ry="14"/>
    </g>

    <!-- ── Seagulls ─────────────────────────────────────────── -->
    <g fill="none" stroke="#1d3a4a" stroke-width="2.5" stroke-linecap="round">
      <path d="M250 62q9-10 18 0q9-10 18 0"/>
      <path d="M330 46q7-8 14 0q7-8 14 0" stroke-width="2"/>
      <path d="M550 72q11-12 22 0q11-12 22 0" stroke-width="3"/>
      <path d="M460 102q6-6 11 0q6-6 11 0" stroke-width="2" opacity=".85"/>
    </g>

    <!-- ── Sea, just a band — this scene is mostly shore ───── -->
    <rect x="0" y="200" width="800" height="80" fill="#9eeeff"/>
    <rect x="0" y="200" width="800" height="28" fill="#c5f3ff"/>
    <path d="M0,228 Q40,220 80,228 T160,228 T240,228 T320,228 T400,228 T480,228 T560,228 T640,228 T720,228 T800,228" fill="none" stroke="#ffffff" stroke-width="2.5" stroke-linecap="round" opacity=".4"/>
    <path d="M0,258 Q40,250 80,258 T160,258 T240,258 T320,258 T400,258 T480,258 T560,258 T640,258 T720,258 T800,258" fill="none" stroke="#ffffff" stroke-width="2.5" stroke-linecap="round" opacity=".3"/>

    <!-- small barrel bobbing in the shallows -->
    <g class="scn-barrel">
      <rect x="546" y="246" width="28" height="24" rx="6" fill="#c98c52" stroke="#1d3a4a" stroke-width="2.4"/>
      <rect x="546" y="251" width="28" height="4" fill="#8a5a30"/>
      <rect x="546" y="262" width="28" height="4" fill="#8a5a30"/>
      <ellipse cx="560" cy="271" rx="17" ry="4" fill="#ffffff" opacity=".3"/>
    </g>

    <!-- small fish leaping in the shallows -->
    <g class="scn-fish">
      <ellipse cx="200" cy="236" rx="20" ry="11" fill="#ff9f4a" stroke="#1d3a4a" stroke-width="2.4"/>
      <path d="M182 236 165 225 169 236 165 247Z" fill="#ff9f4a" stroke="#1d3a4a" stroke-width="2.4" stroke-linejoin="round"/>
      <circle cx="214" cy="232" r="2.2" fill="#1d3a4a"/>
    </g>
    <g class="scn-splash" fill="none" stroke="#ffffff" stroke-linecap="round">
      <ellipse cx="182" cy="256" rx="14" ry="4" opacity=".5" stroke-width="2.4"/>
      <ellipse cx="182" cy="256" rx="22" ry="6" opacity=".3" stroke-width="2"/>
    </g>

    <!-- ── Shoreline: wet sand, then the main beach ─────────── -->
    <rect x="0" y="285" width="800" height="215" fill="#f5ecd6"/>
    <path d="M0,280 Q40,268 80,280 T160,280 T240,280 T320,280 T400,280 T480,280 T560,280 T640,280 T720,280 T800,280 L800,312 L0,312 Z" fill="#fff8ea"/>
    <path d="M0,280 Q40,268 80,280 T160,280 T240,280 T320,280 T400,280 T480,280 T560,280 T640,280 T720,280 T800,280" fill="none" stroke="#ffffff" stroke-width="3" opacity=".55"/>

    <!-- footprint trail, leading toward the shelter -->
    <g fill="#d9a35c" opacity=".65">
      <ellipse cx="172" cy="448" rx="7" ry="9"/><circle cx="166" cy="438" r="3"/><circle cx="176" cy="436" r="3"/>
      <ellipse cx="232" cy="440" rx="7" ry="9"/><circle cx="226" cy="430" r="3"/><circle cx="236" cy="428" r="3"/>
      <ellipse cx="292" cy="434" rx="7" ry="9"/><circle cx="286" cy="424" r="3"/><circle cx="296" cy="422" r="3"/>
      <ellipse cx="352" cy="428" rx="7" ry="9"/><circle cx="346" cy="418" r="3"/><circle cx="356" cy="416" r="3"/>
    </g>

    <!-- driftwood, small (near where Pip washed up) -->
    <g transform="translate(110,463) rotate(8)">
      <rect x="-34" y="-9" width="68" height="18" rx="9" fill="#a8703f" stroke="#1d3a4a" stroke-width="2.2"/>
      <line x1="-18" y1="-9" x2="-18" y2="9" stroke="#6e4423" stroke-width="1.6"/>
      <line x1="6"   y1="-9" x2="6"   y2="9" stroke="#6e4423" stroke-width="1.6"/>
    </g>

    <!-- driftwood, larger (right side, balance) -->
    <g transform="translate(645,432) rotate(-6)">
      <rect x="-46" y="-11" width="92" height="22" rx="11" fill="#a8703f" stroke="#1d3a4a" stroke-width="2.4"/>
      <line x1="-24" y1="-11" x2="-24" y2="11" stroke="#6e4423" stroke-width="1.8"/>
      <line x1="4"   y1="-11" x2="4"   y2="11" stroke="#6e4423" stroke-width="1.8"/>
      <line x1="28"  y1="-11" x2="28"  y2="11" stroke="#6e4423" stroke-width="1.8"/>
    </g>

    <!-- tiny crab on the sand -->
    <g transform="translate(200,438)">
      <ellipse cx="0" cy="0" rx="9" ry="6" fill="#ff8a73" stroke="#1d3a4a" stroke-width="2"/>
      <path d="M-7 -3q-7-5-9-1M7 -3q7-5 9-1" fill="none" stroke="#1d3a4a" stroke-width="2" stroke-linecap="round"/>
      <path d="M-4 6q-2 5-5 6M4 6q2 5 5 6" fill="none" stroke="#1d3a4a" stroke-width="1.6" stroke-linecap="round"/>
      <circle cx="-3" cy="-2" r="1.3" fill="#1d3a4a"/><circle cx="3" cy="-2" r="1.3" fill="#1d3a4a"/>
    </g>

    <!-- scattered shells -->
    <g stroke="#1d3a4a" stroke-width="1.8" stroke-linejoin="round">
      <g transform="translate(330,452)">
        <path d="M-16 8Q-16 -10 0 -16Q16 -10 16 8Z" fill="#ffb9c4"/>
        <path d="M0 -16V8M-8 -13V6M8 -13V6" stroke="#ff8fa1" stroke-width="1.6"/>
      </g>
      <g transform="translate(560,440) scale(.8)">
        <path d="M-16 8Q-16 -10 0 -16Q16 -10 16 8Z" fill="#fff0d0"/>
        <path d="M0 -16V8M-8 -13V6M8 -13V6" stroke="#e8c98a" stroke-width="1.6"/>
      </g>
      <g transform="translate(262,468) scale(.55)">
        <path d="M-16 8Q-16 -10 0 -16Q16 -10 16 8Z" fill="#ffd9b0"/>
        <path d="M0 -16V8M-8 -13V6M8 -13V6" stroke="#e8a05a" stroke-width="1.6"/>
      </g>
      <path transform="translate(608,464)" d="M0 10Q-10 8 -9 -2Q-8 -10 1 -9Q9 -8 7 1Q5 9 0 10Z" fill="#ffd9b0"/>
    </g>

    <!-- ── Driftwood shelter with a warm lantern — the "safe spot" ── -->
    <g>
      <path d="M480 372 L432 460 M480 372 L528 460 M480 372 L468 460 M480 372 L492 460" fill="none" stroke="#a8703f" stroke-width="9" stroke-linecap="round"/>
      <path d="M480 372 L432 460 M480 372 L528 460 M480 372 L468 460 M480 372 L492 460" fill="none" stroke="#6e4423" stroke-width="2" stroke-linecap="round" opacity=".5"/>
      <path d="M452 430 L508 430" stroke="#8a5a30" stroke-width="5" stroke-linecap="round"/>
      <circle class="scn-lantern-glow" cx="480" cy="408" r="10" fill="#ffe9a0"/>
      <circle class="scn-lantern" cx="480" cy="408" r="9" fill="#ffb347" stroke="#1d3a4a" stroke-width="1.8"/>
      <path class="scn-lantern" d="M480 401 483 408 480 415 477 408Z" fill="#ff6f1f"/>
    </g>

    <!-- ── Pip the penguin — waddling toward the shelter. Colours
         match ANIMAL_SVGS[1] exactly (dark navy-black #1a2030, belly
         #f0f4f8, beak #f0c060) so she's recognizably "the same Pip"
         seen elsewhere in the game. ── -->
    <g id="islandFriendSpot" transform="translate(60,0)">
    <g class="scn-pip">
      <ellipse cx="60" cy="452" rx="24" ry="11" fill="#f0c060" opacity=".9"/>
      <ellipse cx="60" cy="448" rx="26" ry="30" fill="#1a2030" stroke="#1d3a4a" stroke-width="2.2"/>
      <ellipse cx="60" cy="450" rx="17" ry="23" fill="#f0f4f8"/>
      <ellipse cx="60" cy="420" rx="19" ry="17" fill="#1a2030" stroke="#1d3a4a" stroke-width="2.2"/>
      <ellipse cx="60" cy="418" rx="12" ry="11" fill="#f0c060"/>
      <circle cx="53" cy="416" r="4.6" fill="#1a2030"/><circle cx="67" cy="416" r="4.6" fill="#1a2030"/>
      <circle cx="51.6" cy="414.4" r="1.3" fill="#fff"/><circle cx="65.6" cy="414.4" r="1.3" fill="#fff"/>
      <path d="M55 423q5 4 10 0" fill="none" stroke="#c08020" stroke-width="2" stroke-linecap="round"/>
      <ellipse cx="33" cy="438" rx="9" ry="13" fill="#1a2030" stroke="#1d3a4a" stroke-width="2"/>
      <g class="scn-pip-wave">
        <ellipse cx="84" cy="432" rx="9" ry="13" fill="#1a2030" stroke="#1d3a4a" stroke-width="2"/>
      </g>
    </g>
    </g>

  </g>
</svg>
